# 
# Wavefront OBJ file
# Converted by the DEEP Exploration 3.5.10.1242
# Right Hemisphere, LTD
# http://www.righthemisphere.com/
# 
mtllib ship001.mtl
# object (unnamed)
g _unnamed_
v 1.57151 5.79405 1.89694
v 0 6.35 2.2
v 0 5.85 2.225
v 2.8 3.9 0.65
v 2.75 4.4 0.8
v 2.23348 2.56251 0.121104
v -2.8 3.9 0.65
v -2.75 4.4 0.8
v -2.23348 2.56251 0.121104
v -1.4 2.95 0
v 1.4 2.95 0
v -0.35 3.2 1.45
v -0.75 3.35 1
v 0.75 3.35 1
v 0.35 3.2 1.45
v -0.35 4.05 1.6
v -0.35 4.5 1.5
v -0.85 4.25 1.2
v -0.629562 4.55204 1.27655
v 0.85 4.25 1.2
v 0.35 4.05 1.6
v 0.35 4.5 1.5
v 0.629562 4.55204 1.27655
v -1.5 5 0.7
v 0 5 -0.2
v 0 5.3 0.1
v -0.424264 4.95749 -0.0294842
v -0.424264 5.26647 0.272507
v 0.424264 4.95749 -0.0294842
v 0.424264 5.26647 0.272507
v 1.5 5 0.7
v -1.4 5.675 0.85
v -1.2 5.675 1.05
v -1.3 5 0.9
v -0.35 5.55 1.65
v 1.4 5.675 0.85
v 1.2 5.675 1.05
v 1.3 5 0.9
v 0.35 5.55 1.65
v 0 6.0853 0.252647
v -0.424264 6.05177 0.425154
v 0.424264 6.05177 0.425154
v -1.3 6.35 1
v -0.6 5.97082 0.841624
v 1.3 6.35 1
v 0.6 5.97082 0.841624
v -1.57151 5.79405 1.89694
v -0.2 -1.7 0.3
v -0.5 -1.5 0
v 0.2 -1.7 0.3
v 0.5 -1.5 0
v -0.35 2.5 1
v -0.699257 1.96717 0.304072
v -0.623125 1.95 0.2
v -0.75 2.5 0
v 0.35 2.5 1
v 0.699257 1.96717 0.304072
v 0.623125 1.95 0.2
v 0.75 2.5 0
v -0.346076 2.42012 1.05169
v 0.346076 2.42012 1.05169
v -2.30312 2.6 2.98023e-009
v -2.79879 4.48539 0.726811
v -2.84498 3.97009 0.570088
v -1.2 3.6 0.75
v 0 3 -0.2
v -1.2 2.95 -0.1
v -0.6 3 0.1
v -0.424264 3 -0.0242641
v -1.24498 3.57009 0.620088
v -1.3 4.65 1
v 1.2 3.6 0.75
v 1.2 2.95 -0.1
v 0.6 3 0.1
v 0.424264 3 -0.0242641
v 1.24498 3.57009 0.620088
v 1.3 4.65 1
v 2.30312 2.6 2.98023e-009
v 2.79879 4.48539 0.726811
v 2.84498 3.97009 0.570088
v -1.3 5 0.6
v -1.2 5.675 0.75
v -0.6 4.85485 0.582177
v -0.6 5.18551 0.688976
v -1.34879 4.73539 0.926811
v -0.5 5 1
v -0.424264 6.83707 0.577802
v 0 6.8706 0.405294
v -0.309459 6.81517 0.690497
v 0 6.83962 0.56467
v -0.271191 6.40786 0.628063
v 0 6.4293 0.517796
v -1.1 6.35 0.9
v -0.6 6.75612 0.994271
v -0.437641 6.75612 0.994271
v -0.383522 6.35612 0.894271
v 1.3 5 0.6
v 1.2 5.675 0.75
v 0.6 4.85485 0.582177
v 0.6 5.18551 0.688976
v 1.34879 4.73539 0.926811
v 0.5 5 1
v 0.424264 6.83707 0.577802
v 0.309459 6.81517 0.690497
v 0.271191 6.40786 0.628063
v 1.1 6.35 0.9
v 0.6 6.75612 0.994271
v 0.437641 6.75612 0.994271
v 0.383522 6.35612 0.894271
v -1.52956 5.39409 1.76005
v -1.67956 5.80768 1.85827
v -1.67956 6.04515 1.93395
v 0 5.55 1.65
v 0 6.64163 1.58325
v -0.0901471 6.4 1.8
v -1.3 5.625 1.175
v -0.48 5.675 1.19
v -0.629562 4.96375 1.34684
v -0.621511 5.56659 1.52825
v -0.789563 5.57704 1.37155
v -1.1 6.6 1.25
v -1.3 6.6 1.35
v -0.424264 6.67516 1.41074
v -0.629562 6.60204 1.62655
v -0.35 6.4 1.8
v -0.629562 6.14526 1.54856
v 0 6.67261 1.42387
v -0.309459 6.69707 1.29804
v 0 6.28294 1.27075
v -0.271191 6.30437 1.16048
v 0.621511 5.56659 1.52825
v 0.0901471 6.4 1.8
v 1.3 5.625 1.175
v 0.48 5.675 1.19
v 0.629562 4.96375 1.34684
v 0.789563 5.57704 1.37155
v 1.3 6.6 1.35
v 1.1 6.6 1.25
v 0.629562 6.14526 1.54856
v 0.309459 6.69707 1.29804
v 0.271191 6.30437 1.16048
v 0.424264 6.67516 1.41074
v 0.35 6.4 1.8
v 0.629562 6.60204 1.62655
v 1.52956 5.39409 1.76005
v 1.67956 5.80768 1.85827
v 1.67956 6.04515 1.93395
# 147 verticies
vt 0.471509 0.305475
vt 0.445461 0.055513
vt 0.498563 0.290996
vt 0.209817 0.567475
vt 0.209817 0.49879
vt 0.200167 0.512574
vt 0.601188 0.306116
vt 0.636245 0.494337
vt 0.625512 0.504345
vt 0.590455 0.316125
vt 0.645694 0.558265
vt 0.656427 0.548256
vt 0.685316 0.611513
vt 0.661188 0.660953
vt 0.641748 0.661624
vt 0.665875 0.612184
vt 0.535348 0.722761
vt 0.435654 0.694169
vt 0.462808 0.655782
vt 0.551485 0.704974
vt 0.566268 0.290187
vt 0.51524 0.278502
vt 0.904309 0.288592
vt 0.892174 0.321591
vt 0.940712 0.318292
vt 0.877958 0.321591
vt 0.843637 0.321591
vt 0.892174 0.465832
vt 0.962302 0.453589
vt 0.892174 0.444009
vt 0.4059 0.0411
vt 0.3539 0.0411
vt 0.3149 0.0061
vt 0.4449 0.0061
vt 0.425334 0.338047
vt 0.425861 0.343839
vt 0.334206 0.343812
vt 0.334706 0.338048
vt 0.124864 0.498856
vt 0.114131 0.488847
vt 0.149187 0.300626
vt 0.15992 0.310635
vt 0.0939491 0.542766
vt 0.104682 0.552775
vt 0.108628 0.656134
vt 0.0891874 0.655463
vt 0.0650598 0.606024
vt 0.0845 0.606694
vt 0.297217 0.65581
vt 0.324372 0.694197
vt 0.234994 0.722789
vt 0.208541 0.705001
vt 0.184108 0.284697
vt 0.235136 0.273012
vt 0.795099 0.321591
vt 0.782965 0.288592
vt 0.746561 0.318292
vt 0.809315 0.321591
vt 0.720472 0.453589
vt 0.795099 0.465832
vt 0.795099 0.444009
vt 0.894045 0.252293
vt 0.793228 0.252293
vt 0.884085 0.0245975
vt 0.803189 0.0245975
vt 0.334194 0.624957
vt 0.380488 0.663512
vt 0.557231 0.413928
vt 0.586946 0.511794
vt 0.608124 0.587911
vt 0.314648 0.055513
vt 0.2886 0.305475
vt 0.261546 0.290996
vt 0.55021 0.49879
vt 0.55021 0.567474
vt 0.55986 0.512574
vt 0.193144 0.408438
vt 0.16343 0.506304
vt 0.142251 0.582421
vt 0.940712 0.538638
vt 0.937122 0.599687
vt 0.950623 0.583187
vt 0.954212 0.538638
vt 0.944302 0.480589
vt 0.754651 0.599687
vt 0.746561 0.538638
vt 0.728561 0.538638
vt 0.732151 0.583187
vt 0.742972 0.480589
vt 0.803189 0.494089
vt 0.809315 0.604648
vt 0.804807 0.538638
vt 0.884085 0.494089
vt 0.882467 0.538638
vt 0.877958 0.604648
vt 0.391461 0.624929
vt 0.425831 0.624929
vt 0.380471 0.663512
vt 0.368564 0.624957
vt 0.566848 0.811658
vt 0.562713 0.846969
vt 0.65637 0.826887
vt 0.655576 0.773665
vt 0.628199 0.735754
vt 0.557658 0.792814
vt 0.552958 0.768066
vt 0.616663 0.694724
vt 0.655536 0.773665
vt 0.566849 0.811657
vt 0.55206 0.869137
vt 0.655576 0.877975
vt 0.55206 0.848172
vt 0.0367207 0.305044
vt 0.0385645 0.193616
vt 0.118036 0.248662
vt 0.163517 0.234371
vt 0.0899521 0.317469
vt 0.401069 0.910311
vt 0.404404 0.953831
vt 0.501106 0.975591
vt 0.507775 0.884199
vt 0.39356 0.961263
vt 0.497852 0.983023
vt 0.376201 0.961263
vt 0.379281 0.916412
vt 0.272575 0.881596
vt 0.279499 0.983023
vt 0.39048 0.916412
vt 0.438851 0.793896
vt 0.430412 0.789887
vt 0.54117 0.742079
vt 0.538658 0.733311
vt 0.231103 0.740584
vt 0.343144 0.79716
vt 0.501104 0.975591
vt 0.404402 0.953831
vt 0.401067 0.910311
vt 0.507773 0.884199
vt 0.49785 0.983023
vt 0.393559 0.961263
vt 0.272573 0.881596
vt 0.379279 0.916412
vt 0.376199 0.961263
vt 0.279497 0.983023
vt 0.390479 0.916412
vt 0.538656 0.733311
vt 0.541168 0.742079
vt 0.438849 0.793896
vt 0.43041 0.789887
vt 0.231101 0.740584
vt 0.343142 0.79716
vt 0.491298 0.469969
vt 0.478207 0.405097
vt 0.537118 0.423117
vt 0.55021 0.498801
vt 0.42584 0.394285
vt 0.42584 0.343829
vt 0.462439 0.49174
vt 0.42584 0.487989
vt 0.42584 0.455553
vt 0.3342 0.455553
vt 0.3342 0.394285
vt 0.3342 0.487989
vt 0.281833 0.405097
vt 0.3342 0.343829
vt 0.297601 0.49174
vt 0.268742 0.469969
vt 0.20983 0.498801
vt 0.297601 0.521416
vt 0.3342 0.563673
vt 0.298655 0.564868
vt 0.3342 0.624941
vt 0.297601 0.639503
vt 0.297601 0.606579
vt 0.462439 0.639503
vt 0.42584 0.624941
vt 0.462439 0.606579
vt 0.42584 0.563673
vt 0.461385 0.564868
vt 0.462439 0.521416
vt 0.55021 0.639356
vt 0.483386 0.565621
vt 0.55021 0.569078
vt 0.20983 0.569078
vt 0.276654 0.565621
vt 0.20983 0.639356
vt 0.471564 0.305423
vt 0.425327 0.338071
vt 0.406203 0.0410932
vt 0.445478 0.0555094
vt 0.334713 0.338071
vt 0.353837 0.0410932
vt 0.222922 0.423117
vt 0.288477 0.305423
vt 0.314562 0.0555094
vt 0.38002 0.563673
vt 0.391822 0.624941
vt 0.368218 0.624941
vt 0.875854 0.62528
vt 0.875647 0.79824
vt 0.926977 0.789171
vt 0.890979 0.62528
vt 0.892869 0.825541
vt 0.936616 0.818388
vt 0.907216 0.894929
vt 0.925548 0.964317
vt 0.960382 0.957164
vt 0.949498 0.887776
vt 0.84358 0.62528
vt 0.84358 0.801997
vt 0.84358 0.828504
vt 0.84358 0.897892
vt 0.760183 0.789171
vt 0.811513 0.79824
vt 0.811306 0.62528
vt 0.796181 0.62528
vt 0.750544 0.818388
vt 0.794291 0.825541
vt 0.737662 0.887776
vt 0.726778 0.957164
vt 0.761612 0.964317
vt 0.779944 0.894929
vt 0.152066 0.194207
vt 0.152066 0.218393
vt 0.215267 0.192214
vt 0.198165 0.175112
vt 0.0888647 0.192214
vt 0.105967 0.175112
vt 0.0626859 0.129013
vt 0.0868719 0.129013
vt 0.105967 0.0829141
vt 0.0888647 0.065812
vt 0.152066 0.0638194
vt 0.152066 0.0396334
vt 0.198165 0.0829141
vt 0.215267 0.065812
vt 0.217259 0.129013
vt 0.241445 0.129013
vt 0.815226 0.4362
vt 0.879744 0.430071
vt 0.879414 0.416966
vt 0.814936 0.424716
vt 0.878617 0.385329
vt 0.814238 0.396991
vt 0.813539 0.369265
vt 0.877819 0.353691
vt 0.813249 0.357781
vt 0.877489 0.340586
vt 0.189365 0.0919765
vt 0.152152 0.0765625
vt 0.11494 0.0919765
vt 0.0995256 0.129189
vt 0.204779 0.129189
vt 0.11494 0.166402
vt 0.189365 0.166402
vt 0.152152 0.181816
vt 0.84358 0.96728
vt 0.709998 0.861638
vt 0.698971 0.950011
vt 0.721712 0.801997
vt 0.988189 0.950011
vt 0.977162 0.861638
vt 0.965449 0.801997
vt 0.12394 0.841887
vt 0.217598 0.861969
vt 0.213462 0.826658
vt 0.124734 0.788665
vt 0.227352 0.783066
vt 0.222652 0.807814
vt 0.152112 0.750754
vt 0.163647 0.709724
vt 0.213462 0.826657
vt 0.124775 0.788665
vt 0.124734 0.892975
vt 0.22825 0.884137
vt 0.22825 0.863172
vt 0.380471 0.660156
# 277 texture verticies
vn 0.761837 -0.376517 0.527106
vn 0.861109 -0.356162 -0.362823
vn 0.318883 -0.327608 -0.889374
vn 0.6687 -0.125426 0.732877
vn 0.406065 -0.075565 0.910715
vn 0.758958 0.158971 0.631436
vn 0.148768 0.0962264 -0.984179
vn 0.0411394 0.561825 -0.826232
vn 0.948466 0.10557 -0.298776
vn 0.805491 -0.37997 -0.454761
vn 0.941062 0.161378 -0.297254
vn 0.432291 0.256172 -0.864581
vn 0.345591 0.634693 -0.691182
vn -0.24082 0.887185 -0.393585
vn 0.790517 0.574958 0.210966
vn 0.600956 0.415327 -0.682902
vn 0.255789 0.960962 0.105467
vn 0.240665 0.697081 0.675395
vn 0.17177 -0.186633 -0.967297
vn 0.1096 0.261515 -0.958957
vn 0.602638 0.15407 -0.783
vn 0 0.00377795 -0.999993
vn 0.897189 0.361717 -0.253402
vn 0.66256 0.221426 -0.715531
vn 0 -0.83205 -0.5547
vn -0.613125 -0.448872 -0.650071
vn 0.518914 0.171102 0.837527
vn 0.498842 -0.220443 0.83819
vn -0.511564 0.00550821 0.859227
vn -0.513477 0.0238344 0.857772
vn -0.891626 0.141835 -0.429984
vn 0.232498 0.571587 -0.786914
vn -0.148768 0.0962264 -0.984179
vn -0.805491 -0.37997 -0.454761
vn -0.432291 0.256172 -0.864581
vn -0.924925 0.18642 -0.331302
vn -0.701805 0.679695 0.213273
vn 0.513073 0.780712 -0.356713
vn -0.37457 0.546338 -0.749141
vn -0.860325 0.359102 -0.361784
vn -0.240665 0.697081 0.675395
vn -0.255789 0.960962 0.105467
vn -0.198011 -0.161245 -0.966846
vn -0.314513 -0.38349 -0.868342
vn -0.1096 0.261515 -0.958957
vn -0.602638 0.15407 -0.783
vn -0.911228 0.298624 -0.283704
vn -0.66256 0.221426 -0.715531
vn -0.190034 0.284721 0.939586
vn -2.15709e-009 0.857914 0.513793
vn 0.842428 -0.26514 0.469058
vn -0.761837 -0.376517 0.527106
vn -0.406065 -0.075565 0.910715
vn -0.742357 -0.0955736 0.663153
vn -0.758958 0.158971 0.631436
vn -0.842428 -0.26514 0.469058
vn -0.785016 0.0340882 -0.618537
vn -0.9896 -0.136573 0.045157
vn -0.989203 -0.146549 0
vn -0.713614 0.361929 -0.599802
vn 0.775787 0.0377351 -0.629865
vn 0.988965 -0.142342 0.0410647
vn 0.977375 -0.172116 0.12294
vn 0.487335 0.49087 -0.722185
vn 0.0751551 0.795526 -0.60124
vn 0.164862 0.218248 -0.961867
vn -0.0751551 0.795526 -0.60124
vn -0.164862 0.218248 -0.961867
vn 0.640977 0.171124 0.748241
vn 0.222974 0.369429 0.902111
vn -0.751733 0.247696 0.611183
vn -0.0768756 -0.314395 0.946174
vn -0.0596827 -0.198001 0.978383
vn -0.023937 -0.191034 0.981292
vn 0.377532 -0.183885 0.907555
vn 0.438407 0.111124 -0.89188
vn 0.403352 0.233254 -0.884816
vn 0.460567 -0.0214578 -0.887366
vn 0.447565 -0.0808853 -0.890586
vn 0.362591 0.327228 -0.872611
vn 0.354123 0.283982 -0.891039
vn 0.0058915 -0.148301 0.988925
vn 0.27098 -0.111867 0.956062
vn 0.354792 -0.310003 0.882055
vn 0.988532 -0.0526543 0.141537
vn 0 -0.191153 0.98156
vn 0.928647 0.279255 0.244194
vn -0.988532 -0.0526543 0.141537
vn -0.928647 0.279255 0.244194
vn 0.526947 -0.364387 0.767821
vn 0.532843 0.172969 0.828348
vn 0.404665 -0.287777 0.868004
vn 0.613611 0.281652 0.737667
vn -0.0938958 0.271095 -0.957962
vn -0.161361 0.345587 -0.924409
vn -0.0963555 0.276056 -0.956299
vn -0.0876302 0.260858 -0.961392
vn 0.908954 -0.183405 0.374386
vn 0.518621 -0.806495 0.283899
vn 0.743313 -0.654941 0.136157
vn -0.278601 0.460803 -0.84264
vn -0.532843 0.172969 0.828348
vn -0.526947 -0.364387 0.767821
vn -0.404665 -0.287777 0.868004
vn -0.613611 0.281652 0.737667
vn 0.0963555 0.276056 -0.956299
vn 0.161361 0.345587 -0.924409
vn 0.0938958 0.271095 -0.957962
vn 0.0876302 0.260858 -0.961392
vn -0.908954 -0.183405 0.374386
vn -0.518621 -0.806495 0.283899
vn -0.743313 -0.654941 0.136157
vn 0.278601 0.460803 -0.84264
vn 0.599009 -0.0567621 0.798728
vn 0.686495 -0.307745 0.6588
vn 0.477386 -0.312694 0.821173
vn 0.507538 -0.00461285 0.861617
vn 0.321532 0.0421018 0.945962
vn 0.262102 -0.0181096 0.96487
vn -0.262045 0.0657392 0.962814
vn -0.342362 -0.337006 0.877049
vn -0.36689 0.0148714 0.930145
vn -0.686495 -0.307745 0.6588
vn -0.507538 -0.00461285 0.861617
vn -0.59901 -0.0567621 0.798728
vn -0.377532 -0.183885 0.907555
vn -0.35001 -0.14949 0.924741
vn 0.023937 -0.191034 0.981292
vn -0.27098 -0.111867 0.956063
vn 0.300747 -0.154311 0.941137
vn 0.367686 -0.156698 0.916653
vn -0.367686 -0.156698 0.916653
vn 0.269638 -0.182076 0.945592
vn -0.408952 -0.177798 0.895068
vn 0.637616 0.297697 -0.710508
vn 0.808541 0.242849 -0.535991
vn 0.707107 0.134922 -0.694115
vn 0.411786 0.821615 -0.394184
vn 0.567791 0.819334 0.0793995
vn 0.999815 0.00366771 0.018881
vn 0 0.385648 -0.922646
vn 0.0608965 0.506455 -0.860113
vn -1.07526e-008 0.190809 -0.981627
vn -0.637616 0.297697 -0.710508
vn -0.719493 0.265339 -0.641814
vn -0.999815 0.00366771 0.018881
vn -0.419358 0.891142 0.17322
vn -0.543713 0.796442 -0.264681
vn -0.707107 0.134922 -0.694115
vn 0 0.978915 -0.204266
vn -0.375956 0.863152 -0.337084
vn 0.375956 0.863152 -0.337084
vn 0.828207 0.549966 0.107752
vn 0.393248 0.64535 0.654889
vn 0 0.81942 0.573193
vn -0.111269 0.724608 -0.68012
vn -0.393248 0.64535 0.654889
vn -0.828207 0.549966 0.107752
vn 0 0.582895 -0.812547
vn -0.499121 0.837712 -0.221623
vn 0.59729 0.73678 -0.316859
vn 0.396911 0.900917 0.175529
vn 0.617404 0.531343 0.580074
vn 7.63233e-009 0.143927 0.989588
vn -0.516478 0.672853 0.529641
vn -0.633323 0.759547 0.148291
vn -0.953498 -0.0341248 0.299461
vn -0.859115 0.265081 0.437782
vn 0.953498 -0.0341248 0.299461
vn 0.859115 0.265081 0.437782
vn 0.0596827 -0.198001 0.978383
vn 0.0768756 -0.314395 0.946174
vn -0.460567 -0.0214578 -0.887366
vn -0.403352 0.233254 -0.884816
vn -0.438407 0.111124 -0.89188
vn -0.447565 -0.0808853 -0.890586
vn -0.354123 0.283982 -0.891039
vn -0.362591 0.327228 -0.872611
vn -0.0058915 -0.148301 0.988925
vn -0.354792 -0.310003 0.882055
# 180 normals
usemtl checker
f  57/1/1 51/2/2 58/3/3
f  133/4/4 77/5/5 101/6/6
f  73/7/7 97/8/8 31/9/9 11/10/10
f  36/11/11 31/9/9 97/8/8 98/12/12
f  106/13/13 138/14/14 137/15/15 45/16/16
f  138/17/14 142/18/17 144/19/18 137/20/15
f  59/21/19 73/7/7 11/10/10 58/22/3
f  59/23/19 74/24/20 73/25/7
f  75/26/21 74/24/20 59/23/19
f  75/26/21 59/23/19 66/27/22
f  100/28/23 97/29/8 99/30/24
f  97/29/8 73/25/7 74/24/20
f  74/24/20 99/30/24 97/29/8
f  50/31/25 48/32/25 49/33/26 51/34/2
f  61/35/27 56/36/28 52/37/29 60/38/30
f  24/39/31 81/40/32 67/41/33 10/42/34
f  82/43/35 81/40/32 24/39/31 32/44/36
f  122/45/37 121/46/38 93/47/39 43/48/40
f  124/49/41 123/50/42 121/51/38 122/52/37
f  10/42/34 67/41/33 55/53/43 54/54/44
f  68/55/45 55/56/43 67/57/33
f  68/55/45 69/58/46 55/56/43
f  55/56/43 69/58/46 66/27/22
f  81/59/32 84/60/47 83/61/48
f  67/57/33 81/59/32 68/55/45
f  83/61/48 68/55/45 81/59/32
f  59/23/19 58/62/3 54/63/44 55/56/43
f  58/62/3 51/64/2 49/65/26 54/63/44
f  123/50/42 124/49/41 125/66/49 114/67/50
f  59/23/19 55/56/43 66/27/22
f  58/22/3 11/10/10 76/68/51
f  31/9/9 101/69/6 76/68/51 11/10/10
f  101/69/6 31/9/9 36/11/11 133/70/4
f  49/71/26 53/72/52 54/73/44
f  71/74/53 116/75/54 85/76/55
f  10/42/34 54/54/44 70/77/56
f  70/77/56 85/78/55 24/39/31 10/42/34
f  32/44/36 24/39/31 85/78/55 116/79/54
f  116/79/54 122/45/37 43/48/40 32/44/36
f  36/11/11 45/16/16 137/15/15 133/70/4
f  98/12/12 106/13/13 45/16/16 36/11/11
f  32/44/36 43/48/40 93/47/39 82/43/35
f  37/80/57 138/81/14 106/82/58 98/83/59
f  38/84/60 37/80/57 98/83/59 97/29/8
f  121/85/38 33/86/61 82/87/62 93/88/63
f  33/86/61 34/89/64 81/59/32 82/87/62
f  86/90/65 84/60/47 81/59/32 34/89/64
f  123/91/42 117/92/66 33/86/61 121/85/38
f  34/89/64 33/86/61 117/92/66 86/90/65
f  97/29/8 100/28/23 102/93/67 38/84/60
f  37/80/57 134/94/68 142/95/17 138/81/14
f  134/94/68 37/80/57 38/84/60 102/93/67
f  132/96/69 143/97/70 114/98/50
f  125/66/49 115/99/71 114/67/50
f  145/100/72 1/101/73 131/102/74 135/103/75
f  136/104/76 146/105/77 145/106/78 135/107/79
f  139/108/80 147/109/81 146/105/77 136/104/76
f  1/101/73 147/110/82 139/111/83 131/102/74
f  145/100/72 146/112/84 1/101/73
f  1/101/73 146/112/84 147/110/82
f  3/113/85 113/114/86 132/115/69
f  114/116/50 2/117/87 132/115/69
f  115/115/71 113/114/86 3/113/88
f  2/117/89 114/116/50 115/115/71
f  3/113/88 2/117/89 115/115/71
f  132/115/69 2/117/87 3/113/85
f  4/118/90 5/119/91 77/120/5 72/121/92
f  5/119/91 79/122/93 101/123/6 77/120/5
f  79/124/94 80/125/95 76/126/96 101/127/97
f  80/128/98 79/122/93 5/119/91 4/118/90
f  4/118/90 6/129/99 78/130/100 80/128/98
f  6/129/99 57/131/1 58/132/3 78/130/100
f  4/118/90 72/121/92 57/131/1
f  57/131/1 6/129/99 4/118/90
f  58/133/3 76/126/96 80/125/95
f  80/125/95 78/134/101 58/133/3
f  71/135/53 8/136/102 7/137/103 65/138/104
f  85/139/55 63/140/105 8/136/102 71/135/53
f  70/141/106 64/142/107 63/143/108 85/144/109
f  8/136/102 63/140/105 64/145/110 7/137/103
f  54/146/44 53/147/52 9/148/111 62/149/112
f  65/138/104 7/137/103 53/147/52
f  9/148/111 53/147/52 7/137/103
f  70/141/106 54/150/44 64/142/107
f  62/151/113 64/142/107 54/150/44
f  62/149/112 9/148/111 7/137/103 64/145/110
f  20/152/114 14/153/115 72/154/92 77/155/5
f  14/153/115 15/156/116 56/157/28
f  20/152/114 23/158/117 22/159/118 21/160/119
f  20/152/114 21/160/119 15/156/116 14/153/115
f  20/152/114 77/155/5 23/158/117
f  21/160/119 16/161/120 12/162/121 15/156/116
f  22/159/118 17/163/122 16/161/120 21/160/119
f  12/162/121 13/164/123 52/165/29
f  17/163/122 19/166/124 18/167/125 16/161/120
f  12/162/121 16/161/120 18/167/125 13/164/123
f  71/168/53 18/167/125 19/166/124
f  56/157/28 15/156/116 12/162/121 52/165/29
f  17/163/122 118/169/126 19/166/124
f  35/170/127 119/171/128 118/169/126 17/163/122
f  125/172/49 124/173/41 126/174/129
f  126/174/129 119/171/128 35/170/127 125/172/49
f  144/175/18 143/176/70 139/177/83
f  39/178/130 131/179/74 139/177/83 143/176/70
f  135/180/75 22/159/118 23/158/117
f  135/180/75 131/179/74 39/178/130 22/159/118
f  144/175/18 139/177/83 137/181/15
f  139/177/83 136/182/131 133/183/4 137/181/15
f  116/184/54 120/185/132 126/174/129 122/186/37
f  126/174/129 124/173/41 122/186/37
f  135/180/75 23/158/117 77/155/5
f  133/183/4 136/182/131 135/180/75 77/155/5
f  57/187/1 56/157/28 61/188/27
f  57/187/1 72/154/92 14/153/115
f  14/153/115 56/157/28 57/187/1
f  61/188/27 50/189/133 51/190/2 57/187/1
f  60/191/30 48/192/134 50/189/133 61/188/27
f  65/193/104 13/164/123 18/167/125 71/168/53
f  52/165/29 53/194/52 60/191/30
f  65/193/104 53/194/52 13/164/123
f  52/165/29 13/164/123 53/194/52
f  49/195/26 48/192/134 60/191/30 53/194/52
f  19/166/124 118/169/126 71/168/53
f  118/169/126 120/185/132 116/184/54 71/168/53
f  113/196/86 35/170/127 17/163/122
f  113/196/86 17/163/122 22/159/118
f  22/159/118 39/178/130 113/196/86
f  132/197/69 113/196/86 39/178/130 143/176/70
f  125/172/49 35/170/127 113/196/86 115/198/71
f  75/199/21 29/200/135 99/201/24 74/202/20
f  30/203/136 100/204/23 99/201/24 29/200/135
f  42/205/137 103/206/138 107/207/139 46/208/140
f  29/200/135 75/199/21 66/209/22 25/210/141
f  29/200/135 25/210/141 26/211/142 30/203/136
f  42/205/137 30/203/136 26/211/142 40/212/143
f  83/213/48 27/214/144 69/215/46 68/216/45
f  83/213/48 84/217/47 28/218/145 27/214/144
f  44/219/146 94/220/147 87/221/148 41/222/149
f  66/209/22 69/215/46 27/214/144 25/210/141
f  26/211/142 25/210/141 27/214/144 28/218/145
f  40/212/143 26/211/142 28/218/145 41/222/149
f  127/223/150 114/224/50 142/225/17 140/226/151
f  123/227/42 114/224/50 127/223/150 128/228/152
f  94/229/147 123/227/42 128/228/152 95/230/153
f  94/229/147 95/230/153 89/231/154 87/232/148
f  87/232/148 89/231/154 90/233/155 88/234/156
f  90/233/155 104/235/157 103/236/138 88/234/156
f  104/235/157 108/237/158 107/238/139 103/236/138
f  140/226/151 142/225/17 107/238/139 108/237/158
f  129/239/159 127/240/150 140/241/151 141/242/160
f  128/241/152 127/240/150 129/239/159 130/242/161
f  95/243/153 128/241/152 130/242/161 96/244/162
f  95/243/153 96/244/162 91/245/163 89/246/154
f  89/246/154 91/245/163 92/247/164 90/248/155
f  92/247/164 105/245/165 104/246/157 90/248/155
f  105/245/165 109/244/166 108/243/158 104/246/157
f  141/242/160 140/241/151 108/243/158 109/244/166
f  105/249/165 92/250/164 91/251/163
f  105/249/165 91/251/163 96/252/162 109/253/166
f  96/252/162 130/254/161 141/255/160 109/253/166
f  130/254/161 129/256/159 141/255/160
f  41/222/149 28/218/145 84/217/47 44/219/146
f  41/222/149 87/221/148 88/257/156 40/212/143
f  40/212/143 88/257/156 103/206/138 42/205/137
f  46/208/140 100/204/23 30/203/136 42/205/137
f  44/219/146 117/258/167 123/259/42 94/220/147
f  44/219/146 84/217/47 86/260/168 117/258/167
f  142/261/17 134/262/169 46/208/140 107/207/139
f  102/263/170 100/204/23 46/208/140 134/262/169
f  119/264/128 47/265/171 110/266/172 118/267/126
f  110/268/173 111/269/174 120/270/175 118/271/176
f  111/269/174 112/272/177 126/273/178 120/270/175
f  126/274/129 112/275/179 47/265/171 119/264/128
f  111/276/180 110/266/172 47/265/171
f  111/276/180 47/265/171 112/275/179
f  143/97/70 144/19/18 142/18/17
f  114/277/50 143/97/70 142/18/17
